<mxfile host="app.diagrams.net" modified="2023-01-04T17:06:03.059Z" agent="5.0 (Windows NT 10.0; WOW64) AppleWebKit/537.36 (KHTML, like Gecko) Chrome/92.0.4515.131 Safari/537.36 SLBrowser/8.0.0.3161 SLBChan/25" version="20.8.0" etag="kdhPRklwyp2WlcTaGHH0" type="github">
  <diagram id="b9_9XMLkwpHrGC9NCaAF" name="第 1 页">
    <mxGraphModel dx="2700" dy="784" grid="0" gridSize="10" guides="1" tooltips="1" connect="1" arrows="1" fold="1" page="0" pageScale="1" pageWidth="827" pageHeight="1169" math="0" shadow="0">
      <root>
        <mxCell id="0" />
        <mxCell id="1" parent="0" />
        <mxCell id="jlaHaONKCLdTO8kjAVdR-1" value="&lt;font style=&quot;font-size: 18px;&quot;&gt;图像读取&lt;/font&gt;" style="rounded=0;whiteSpace=wrap;html=1;" vertex="1" parent="1">
          <mxGeometry x="70" y="525" width="120" height="60" as="geometry" />
        </mxCell>
        <mxCell id="jlaHaONKCLdTO8kjAVdR-2" value="&lt;font style=&quot;font-size: 18px;&quot;&gt;彩色图像灰度化&lt;/font&gt;" style="rounded=0;whiteSpace=wrap;html=1;" vertex="1" parent="1">
          <mxGeometry x="260" y="525" width="150" height="60" as="geometry" />
        </mxCell>
        <mxCell id="jlaHaONKCLdTO8kjAVdR-3" value="&lt;font style=&quot;font-size: 18px;&quot;&gt;图像预处理&lt;/font&gt;" style="rounded=0;whiteSpace=wrap;html=1;" vertex="1" parent="1">
          <mxGeometry x="480" y="525" width="120" height="60" as="geometry" />
        </mxCell>
        <mxCell id="jlaHaONKCLdTO8kjAVdR-4" value="车牌粗定位" style="rounded=0;whiteSpace=wrap;html=1;fontSize=18;" vertex="1" parent="1">
          <mxGeometry x="670" y="525" width="120" height="60" as="geometry" />
        </mxCell>
        <mxCell id="jlaHaONKCLdTO8kjAVdR-5" value="&lt;font style=&quot;font-size: 18px;&quot;&gt;车边框的去除&lt;/font&gt;" style="rounded=0;whiteSpace=wrap;html=1;" vertex="1" parent="1">
          <mxGeometry x="570" y="640" width="220" height="60" as="geometry" />
        </mxCell>
        <mxCell id="jlaHaONKCLdTO8kjAVdR-6" value="&lt;font style=&quot;font-size: 18px;&quot;&gt;字符分割&lt;/font&gt;" style="rounded=0;whiteSpace=wrap;html=1;" vertex="1" parent="1">
          <mxGeometry x="330" y="640" width="150" height="60" as="geometry" />
        </mxCell>
        <mxCell id="jlaHaONKCLdTO8kjAVdR-7" value="&lt;font style=&quot;font-size: 18px;&quot;&gt;字符识别&lt;/font&gt;" style="rounded=0;whiteSpace=wrap;html=1;" vertex="1" parent="1">
          <mxGeometry x="70" y="640" width="160" height="60" as="geometry" />
        </mxCell>
        <mxCell id="jlaHaONKCLdTO8kjAVdR-8" value="" style="endArrow=classic;html=1;rounded=0;fontSize=18;exitX=1;exitY=0.5;exitDx=0;exitDy=0;" edge="1" parent="1" source="jlaHaONKCLdTO8kjAVdR-1" target="jlaHaONKCLdTO8kjAVdR-2">
          <mxGeometry width="50" height="50" relative="1" as="geometry">
            <mxPoint x="390" y="700" as="sourcePoint" />
            <mxPoint x="440" y="650" as="targetPoint" />
          </mxGeometry>
        </mxCell>
        <mxCell id="jlaHaONKCLdTO8kjAVdR-9" value="" style="endArrow=classic;html=1;rounded=0;fontSize=18;exitX=1;exitY=0.5;exitDx=0;exitDy=0;entryX=0;entryY=0.5;entryDx=0;entryDy=0;" edge="1" parent="1" source="jlaHaONKCLdTO8kjAVdR-2" target="jlaHaONKCLdTO8kjAVdR-3">
          <mxGeometry width="50" height="50" relative="1" as="geometry">
            <mxPoint x="390" y="700" as="sourcePoint" />
            <mxPoint x="440" y="650" as="targetPoint" />
          </mxGeometry>
        </mxCell>
        <mxCell id="jlaHaONKCLdTO8kjAVdR-10" value="" style="endArrow=classic;html=1;rounded=0;fontSize=18;exitX=1;exitY=0.5;exitDx=0;exitDy=0;" edge="1" parent="1" source="jlaHaONKCLdTO8kjAVdR-3" target="jlaHaONKCLdTO8kjAVdR-4">
          <mxGeometry width="50" height="50" relative="1" as="geometry">
            <mxPoint x="390" y="700" as="sourcePoint" />
            <mxPoint x="440" y="650" as="targetPoint" />
          </mxGeometry>
        </mxCell>
        <mxCell id="jlaHaONKCLdTO8kjAVdR-11" value="" style="endArrow=classic;html=1;rounded=0;fontSize=18;exitX=0.5;exitY=1;exitDx=0;exitDy=0;entryX=0.5;entryY=0;entryDx=0;entryDy=0;" edge="1" parent="1" source="jlaHaONKCLdTO8kjAVdR-4" target="jlaHaONKCLdTO8kjAVdR-5">
          <mxGeometry width="50" height="50" relative="1" as="geometry">
            <mxPoint x="390" y="700" as="sourcePoint" />
            <mxPoint x="440" y="650" as="targetPoint" />
          </mxGeometry>
        </mxCell>
        <mxCell id="jlaHaONKCLdTO8kjAVdR-12" value="" style="endArrow=classic;html=1;rounded=0;fontSize=18;entryX=1;entryY=0.5;entryDx=0;entryDy=0;exitX=0;exitY=0.5;exitDx=0;exitDy=0;" edge="1" parent="1" source="jlaHaONKCLdTO8kjAVdR-6" target="jlaHaONKCLdTO8kjAVdR-7">
          <mxGeometry width="50" height="50" relative="1" as="geometry">
            <mxPoint x="390" y="700" as="sourcePoint" />
            <mxPoint x="440" y="650" as="targetPoint" />
          </mxGeometry>
        </mxCell>
        <mxCell id="jlaHaONKCLdTO8kjAVdR-13" value="" style="endArrow=classic;html=1;rounded=0;fontSize=18;exitX=0;exitY=0.5;exitDx=0;exitDy=0;entryX=1;entryY=0.5;entryDx=0;entryDy=0;" edge="1" parent="1" source="jlaHaONKCLdTO8kjAVdR-5" target="jlaHaONKCLdTO8kjAVdR-6">
          <mxGeometry width="50" height="50" relative="1" as="geometry">
            <mxPoint x="390" y="700" as="sourcePoint" />
            <mxPoint x="440" y="650" as="targetPoint" />
          </mxGeometry>
        </mxCell>
        <mxCell id="jlaHaONKCLdTO8kjAVdR-14" value="滑动滤波窗口，窗口与某图像某点重合" style="rounded=0;whiteSpace=wrap;html=1;fontSize=18;" vertex="1" parent="1">
          <mxGeometry x="178" y="50" width="323" height="60" as="geometry" />
        </mxCell>
        <mxCell id="jlaHaONKCLdTO8kjAVdR-15" value="记录下与滤波窗口各位置对应的像素值" style="rounded=0;whiteSpace=wrap;html=1;fontSize=18;" vertex="1" parent="1">
          <mxGeometry x="178" y="141" width="323" height="60" as="geometry" />
        </mxCell>
        <mxCell id="jlaHaONKCLdTO8kjAVdR-16" value="对记录下的像素值进行排序" style="rounded=0;whiteSpace=wrap;html=1;fontSize=18;" vertex="1" parent="1">
          <mxGeometry x="178" y="232" width="323" height="60" as="geometry" />
        </mxCell>
        <mxCell id="jlaHaONKCLdTO8kjAVdR-17" value="找到排序后的中间值" style="rounded=0;whiteSpace=wrap;html=1;fontSize=18;" vertex="1" parent="1">
          <mxGeometry x="178" y="323" width="323" height="60" as="geometry" />
        </mxCell>
        <mxCell id="jlaHaONKCLdTO8kjAVdR-18" value="将中间值赋予窗口中心对应的像素" style="rounded=0;whiteSpace=wrap;html=1;fontSize=18;" vertex="1" parent="1">
          <mxGeometry x="178" y="414" width="323" height="60" as="geometry" />
        </mxCell>
        <mxCell id="jlaHaONKCLdTO8kjAVdR-19" value="" style="endArrow=classic;html=1;rounded=0;fontSize=18;entryX=0.5;entryY=0;entryDx=0;entryDy=0;" edge="1" parent="1" source="jlaHaONKCLdTO8kjAVdR-14" target="jlaHaONKCLdTO8kjAVdR-15">
          <mxGeometry width="50" height="50" relative="1" as="geometry">
            <mxPoint x="387" y="274" as="sourcePoint" />
            <mxPoint x="437" y="224" as="targetPoint" />
          </mxGeometry>
        </mxCell>
        <mxCell id="jlaHaONKCLdTO8kjAVdR-20" value="" style="endArrow=classic;html=1;rounded=0;fontSize=18;exitX=0.5;exitY=1;exitDx=0;exitDy=0;" edge="1" parent="1" source="jlaHaONKCLdTO8kjAVdR-15" target="jlaHaONKCLdTO8kjAVdR-16">
          <mxGeometry width="50" height="50" relative="1" as="geometry">
            <mxPoint x="387" y="274" as="sourcePoint" />
            <mxPoint x="437" y="224" as="targetPoint" />
          </mxGeometry>
        </mxCell>
        <mxCell id="jlaHaONKCLdTO8kjAVdR-21" value="" style="endArrow=classic;html=1;rounded=0;fontSize=18;exitX=0.5;exitY=1;exitDx=0;exitDy=0;entryX=0.5;entryY=0;entryDx=0;entryDy=0;" edge="1" parent="1" source="jlaHaONKCLdTO8kjAVdR-16" target="jlaHaONKCLdTO8kjAVdR-17">
          <mxGeometry width="50" height="50" relative="1" as="geometry">
            <mxPoint x="387" y="274" as="sourcePoint" />
            <mxPoint x="437" y="224" as="targetPoint" />
          </mxGeometry>
        </mxCell>
        <mxCell id="jlaHaONKCLdTO8kjAVdR-22" value="" style="endArrow=classic;html=1;rounded=0;fontSize=18;exitX=0.5;exitY=1;exitDx=0;exitDy=0;" edge="1" parent="1" source="jlaHaONKCLdTO8kjAVdR-17" target="jlaHaONKCLdTO8kjAVdR-18">
          <mxGeometry width="50" height="50" relative="1" as="geometry">
            <mxPoint x="387" y="274" as="sourcePoint" />
            <mxPoint x="437" y="224" as="targetPoint" />
          </mxGeometry>
        </mxCell>
        <mxCell id="jlaHaONKCLdTO8kjAVdR-24" value="计算每行的像素值&lt;br&gt;记录在ycounts[1,y]中" style="rounded=0;whiteSpace=wrap;html=1;fontSize=18;" vertex="1" parent="1">
          <mxGeometry x="-968" y="172" width="186" height="67" as="geometry" />
        </mxCell>
        <mxCell id="jlaHaONKCLdTO8kjAVdR-25" value="求ycounts中的最大值及&lt;br&gt;最大值所在的位置pymax" style="rounded=0;whiteSpace=wrap;html=1;fontSize=18;" vertex="1" parent="1">
          <mxGeometry x="-991" y="273" width="233" height="67" as="geometry" />
        </mxCell>
        <mxCell id="jlaHaONKCLdTO8kjAVdR-26" value="Py1=1" style="rounded=0;whiteSpace=wrap;html=1;fontSize=18;" vertex="1" parent="1">
          <mxGeometry x="-934" y="373" width="120" height="60" as="geometry" />
        </mxCell>
        <mxCell id="jlaHaONKCLdTO8kjAVdR-27" value="‘1’个数&amp;lt;3" style="strokeWidth=2;html=1;shape=mxgraph.flowchart.decision;whiteSpace=wrap;fontSize=18;" vertex="1" parent="1">
          <mxGeometry x="-989" y="478" width="230" height="100" as="geometry" />
        </mxCell>
        <mxCell id="jlaHaONKCLdTO8kjAVdR-28" value="Py1=Py1+1" style="rounded=0;whiteSpace=wrap;html=1;fontSize=18;" vertex="1" parent="1">
          <mxGeometry x="-934" y="623" width="120" height="60" as="geometry" />
        </mxCell>
        <mxCell id="jlaHaONKCLdTO8kjAVdR-32" value="" style="edgeStyle=segmentEdgeStyle;endArrow=classic;html=1;curved=0;rounded=0;endSize=8;startSize=8;fontSize=18;exitX=0;exitY=0.5;exitDx=0;exitDy=0;" edge="1" parent="1" source="jlaHaONKCLdTO8kjAVdR-28">
          <mxGeometry x="-0.3035" y="38" width="50" height="50" relative="1" as="geometry">
            <mxPoint x="-1043" y="578" as="sourcePoint" />
            <mxPoint x="-993" y="528" as="targetPoint" />
            <Array as="points">
              <mxPoint x="-1067" y="653" />
              <mxPoint x="-1067" y="528" />
            </Array>
            <mxPoint x="-1" as="offset" />
          </mxGeometry>
        </mxCell>
        <mxCell id="jlaHaONKCLdTO8kjAVdR-33" value="" style="endArrow=classic;html=1;rounded=0;fontSize=18;exitX=0.5;exitY=1;exitDx=0;exitDy=0;entryX=0.5;entryY=0;entryDx=0;entryDy=0;exitPerimeter=0;" edge="1" parent="1" source="jlaHaONKCLdTO8kjAVdR-53" target="jlaHaONKCLdTO8kjAVdR-24">
          <mxGeometry width="50" height="50" relative="1" as="geometry">
            <mxPoint x="-875" y="138" as="sourcePoint" />
            <mxPoint x="-489" y="369" as="targetPoint" />
          </mxGeometry>
        </mxCell>
        <mxCell id="jlaHaONKCLdTO8kjAVdR-34" value="" style="endArrow=classic;html=1;rounded=0;fontSize=18;entryX=0.5;entryY=0;entryDx=0;entryDy=0;exitX=0.5;exitY=1;exitDx=0;exitDy=0;" edge="1" parent="1" source="jlaHaONKCLdTO8kjAVdR-24" target="jlaHaONKCLdTO8kjAVdR-25">
          <mxGeometry width="50" height="50" relative="1" as="geometry">
            <mxPoint x="-875" y="233" as="sourcePoint" />
            <mxPoint x="-489" y="369" as="targetPoint" />
          </mxGeometry>
        </mxCell>
        <mxCell id="jlaHaONKCLdTO8kjAVdR-35" value="" style="endArrow=classic;html=1;rounded=0;fontSize=18;exitX=0.5;exitY=1;exitDx=0;exitDy=0;entryX=0.5;entryY=0;entryDx=0;entryDy=0;" edge="1" parent="1" source="jlaHaONKCLdTO8kjAVdR-25" target="jlaHaONKCLdTO8kjAVdR-26">
          <mxGeometry width="50" height="50" relative="1" as="geometry">
            <mxPoint x="-539" y="419" as="sourcePoint" />
            <mxPoint x="-489" y="369" as="targetPoint" />
          </mxGeometry>
        </mxCell>
        <mxCell id="jlaHaONKCLdTO8kjAVdR-36" value="" style="endArrow=classic;html=1;rounded=0;fontSize=18;exitX=0.5;exitY=1;exitDx=0;exitDy=0;entryX=0.5;entryY=0;entryDx=0;entryDy=0;entryPerimeter=0;" edge="1" parent="1" source="jlaHaONKCLdTO8kjAVdR-26" target="jlaHaONKCLdTO8kjAVdR-27">
          <mxGeometry width="50" height="50" relative="1" as="geometry">
            <mxPoint x="-539" y="419" as="sourcePoint" />
            <mxPoint x="-489" y="369" as="targetPoint" />
          </mxGeometry>
        </mxCell>
        <mxCell id="jlaHaONKCLdTO8kjAVdR-37" value="" style="endArrow=classic;html=1;rounded=0;fontSize=18;exitX=0.5;exitY=1;exitDx=0;exitDy=0;exitPerimeter=0;" edge="1" parent="1" source="jlaHaONKCLdTO8kjAVdR-27" target="jlaHaONKCLdTO8kjAVdR-28">
          <mxGeometry width="50" height="50" relative="1" as="geometry">
            <mxPoint x="-539" y="654" as="sourcePoint" />
            <mxPoint x="-489" y="604" as="targetPoint" />
          </mxGeometry>
        </mxCell>
        <mxCell id="jlaHaONKCLdTO8kjAVdR-38" value="Yes" style="text;html=1;align=center;verticalAlign=middle;resizable=0;points=[];autosize=1;strokeColor=none;fillColor=none;fontSize=18;" vertex="1" parent="1">
          <mxGeometry x="-926" y="580" width="48" height="34" as="geometry" />
        </mxCell>
        <mxCell id="jlaHaONKCLdTO8kjAVdR-39" value="Py1=Py1" style="whiteSpace=wrap;html=1;fontSize=18;" vertex="1" parent="1">
          <mxGeometry x="-649" y="498" width="120" height="60" as="geometry" />
        </mxCell>
        <mxCell id="jlaHaONKCLdTO8kjAVdR-40" value="" style="endArrow=classic;html=1;rounded=0;fontSize=18;exitX=1;exitY=0.5;exitDx=0;exitDy=0;exitPerimeter=0;" edge="1" parent="1" source="jlaHaONKCLdTO8kjAVdR-27" target="jlaHaONKCLdTO8kjAVdR-39">
          <mxGeometry width="50" height="50" relative="1" as="geometry">
            <mxPoint x="-728" y="458" as="sourcePoint" />
            <mxPoint x="-489" y="369" as="targetPoint" />
          </mxGeometry>
        </mxCell>
        <mxCell id="jlaHaONKCLdTO8kjAVdR-41" value="Py2=y" style="whiteSpace=wrap;html=1;fontSize=18;" vertex="1" parent="1">
          <mxGeometry x="-649" y="399" width="120" height="60" as="geometry" />
        </mxCell>
        <mxCell id="jlaHaONKCLdTO8kjAVdR-42" value="‘1’个数&amp;lt;3" style="strokeWidth=2;html=1;shape=mxgraph.flowchart.decision;whiteSpace=wrap;fontSize=18;" vertex="1" parent="1">
          <mxGeometry x="-704" y="252" width="230" height="100" as="geometry" />
        </mxCell>
        <mxCell id="jlaHaONKCLdTO8kjAVdR-43" value="Py2=Py2-1" style="whiteSpace=wrap;html=1;fontSize=18;" vertex="1" parent="1">
          <mxGeometry x="-649" y="141" width="120" height="60" as="geometry" />
        </mxCell>
        <mxCell id="jlaHaONKCLdTO8kjAVdR-44" value="" style="endArrow=classic;html=1;rounded=0;fontSize=18;exitX=0.5;exitY=0;exitDx=0;exitDy=0;entryX=0.5;entryY=1;entryDx=0;entryDy=0;" edge="1" parent="1" source="jlaHaONKCLdTO8kjAVdR-39" target="jlaHaONKCLdTO8kjAVdR-41">
          <mxGeometry width="50" height="50" relative="1" as="geometry">
            <mxPoint x="-539" y="301" as="sourcePoint" />
            <mxPoint x="-489" y="251" as="targetPoint" />
          </mxGeometry>
        </mxCell>
        <mxCell id="jlaHaONKCLdTO8kjAVdR-45" value="" style="endArrow=classic;html=1;rounded=0;fontSize=18;exitX=0.5;exitY=0;exitDx=0;exitDy=0;entryX=0.5;entryY=1;entryDx=0;entryDy=0;entryPerimeter=0;" edge="1" parent="1" source="jlaHaONKCLdTO8kjAVdR-41" target="jlaHaONKCLdTO8kjAVdR-42">
          <mxGeometry width="50" height="50" relative="1" as="geometry">
            <mxPoint x="-539" y="301" as="sourcePoint" />
            <mxPoint x="-489" y="251" as="targetPoint" />
          </mxGeometry>
        </mxCell>
        <mxCell id="jlaHaONKCLdTO8kjAVdR-46" value="" style="endArrow=classic;html=1;rounded=0;fontSize=18;exitX=0.5;exitY=0;exitDx=0;exitDy=0;exitPerimeter=0;" edge="1" parent="1" source="jlaHaONKCLdTO8kjAVdR-42" target="jlaHaONKCLdTO8kjAVdR-43">
          <mxGeometry width="50" height="50" relative="1" as="geometry">
            <mxPoint x="-539" y="301" as="sourcePoint" />
            <mxPoint x="-489" y="251" as="targetPoint" />
          </mxGeometry>
        </mxCell>
        <mxCell id="jlaHaONKCLdTO8kjAVdR-47" value="" style="edgeStyle=segmentEdgeStyle;endArrow=classic;html=1;curved=0;rounded=0;endSize=8;startSize=8;fontSize=18;entryX=0;entryY=0.5;entryDx=0;entryDy=0;entryPerimeter=0;exitX=0;exitY=0.5;exitDx=0;exitDy=0;" edge="1" parent="1" source="jlaHaONKCLdTO8kjAVdR-43" target="jlaHaONKCLdTO8kjAVdR-42">
          <mxGeometry x="0.4428" y="-21" width="50" height="50" relative="1" as="geometry">
            <mxPoint x="-672" y="229" as="sourcePoint" />
            <mxPoint x="-747" y="270" as="targetPoint" />
            <Array as="points">
              <mxPoint x="-747" y="171" />
              <mxPoint x="-747" y="302" />
            </Array>
            <mxPoint as="offset" />
          </mxGeometry>
        </mxCell>
        <mxCell id="jlaHaONKCLdTO8kjAVdR-48" value="Yes" style="text;html=1;align=center;verticalAlign=middle;resizable=0;points=[];autosize=1;strokeColor=none;fillColor=none;fontSize=18;" vertex="1" parent="1">
          <mxGeometry x="-591" y="214" width="48" height="34" as="geometry" />
        </mxCell>
        <mxCell id="jlaHaONKCLdTO8kjAVdR-49" value="Py2=Py2" style="whiteSpace=wrap;html=1;fontSize=18;" vertex="1" parent="1">
          <mxGeometry x="-408" y="272" width="120" height="60" as="geometry" />
        </mxCell>
        <mxCell id="jlaHaONKCLdTO8kjAVdR-50" value="" style="endArrow=classic;html=1;rounded=0;fontSize=18;entryX=0;entryY=0.5;entryDx=0;entryDy=0;exitX=1;exitY=0.5;exitDx=0;exitDy=0;exitPerimeter=0;" edge="1" parent="1" source="jlaHaONKCLdTO8kjAVdR-42" target="jlaHaONKCLdTO8kjAVdR-49">
          <mxGeometry width="50" height="50" relative="1" as="geometry">
            <mxPoint x="-539" y="301" as="sourcePoint" />
            <mxPoint x="-489" y="251" as="targetPoint" />
          </mxGeometry>
        </mxCell>
        <mxCell id="jlaHaONKCLdTO8kjAVdR-51" value="No" style="text;html=1;align=center;verticalAlign=middle;resizable=0;points=[];autosize=1;strokeColor=none;fillColor=none;fontSize=18;" vertex="1" parent="1">
          <mxGeometry x="-730" y="493" width="41" height="34" as="geometry" />
        </mxCell>
        <mxCell id="jlaHaONKCLdTO8kjAVdR-52" value="No" style="text;html=1;align=center;verticalAlign=middle;resizable=0;points=[];autosize=1;strokeColor=none;fillColor=none;fontSize=18;" vertex="1" parent="1">
          <mxGeometry x="-466" y="267" width="41" height="34" as="geometry" />
        </mxCell>
        <mxCell id="jlaHaONKCLdTO8kjAVdR-53" value="开始" style="strokeWidth=2;html=1;shape=mxgraph.flowchart.terminator;whiteSpace=wrap;fontSize=18;" vertex="1" parent="1">
          <mxGeometry x="-947" y="62" width="146" height="60" as="geometry" />
        </mxCell>
        <mxCell id="jlaHaONKCLdTO8kjAVdR-54" value="结束" style="strokeWidth=2;html=1;shape=mxgraph.flowchart.terminator;whiteSpace=wrap;fontSize=18;" vertex="1" parent="1">
          <mxGeometry x="-421" y="389" width="146" height="60" as="geometry" />
        </mxCell>
        <mxCell id="jlaHaONKCLdTO8kjAVdR-55" value="" style="endArrow=classic;html=1;rounded=0;fontSize=18;entryX=0.5;entryY=0;entryDx=0;entryDy=0;entryPerimeter=0;exitX=0.5;exitY=1;exitDx=0;exitDy=0;" edge="1" parent="1" source="jlaHaONKCLdTO8kjAVdR-49" target="jlaHaONKCLdTO8kjAVdR-54">
          <mxGeometry width="50" height="50" relative="1" as="geometry">
            <mxPoint x="-539" y="301" as="sourcePoint" />
            <mxPoint x="-489" y="251" as="targetPoint" />
          </mxGeometry>
        </mxCell>
      </root>
    </mxGraphModel>
  </diagram>
</mxfile>
